solid podlozka PCB 2
facet normal 1.0 0.0 0.0
  outer loop
    vertex 3.0 10.000000000000002 1.9999999999999998
    vertex 3.0 0.0 7.0
    vertex 3.0 0.0 1.9999999999999998
  endloop
endfacet
facet normal 1.0 0.0 0.0
  outer loop
    vertex 3.0 0.0 7.0
    vertex 3.0 10.000000000000002 1.9999999999999998
    vertex 3.0 10.000000000000002 7.0
  endloop
endfacet
facet normal 0.0 0.0 1.0
  outer loop
    vertex 3.0 0.0 7.0
    vertex 7.049916206369744e-16 10.000000000000002 7.0
    vertex 7.049916206369744e-16 0.0 7.0
  endloop
endfacet
facet normal 0.0 0.0 1.0
  outer loop
    vertex 7.049916206369744e-16 10.000000000000002 7.0
    vertex 3.0 0.0 7.0
    vertex 3.0 10.000000000000002 7.0
  endloop
endfacet
facet normal 1.0 0.0 0.0
  outer loop
    vertex 63.99999999999997 10.000000000000002 1.9999999999999998
    vertex 63.99999999999997 0.0 7.0
    vertex 63.99999999999997 0.0 1.9999999999999998
  endloop
endfacet
facet normal 1.0 0.0 0.0
  outer loop
    vertex 63.99999999999997 0.0 7.0
    vertex 63.99999999999997 10.000000000000002 1.9999999999999998
    vertex 63.99999999999997 10.000000000000002 7.0
  endloop
endfacet
facet normal 0.0 0.0 1.0
  outer loop
    vertex 37.00013434784148 26.49999990982171 7.0
    vertex 27.00013434784148 29.499999909821703 7.0
    vertex 27.00013434784148 26.4999999098217 7.0
  endloop
endfacet
facet normal 0.0 0.0 1.0
  outer loop
    vertex 27.00013434784148 29.499999909821703 7.0
    vertex 37.00013434784148 26.49999990982171 7.0
    vertex 37.00013434784148 29.499999909821703 7.0
  endloop
endfacet
facet normal -0.9999998896174962 0.00046700272236956043 5.170544193617413e-05
  outer loop
    vertex 27.00013434784148 29.499999909821703 7.0
    vertex 27.00013434784148 26.4999999098217 1.9999999999999998
    vertex 27.00013434784148 26.4999999098217 7.0
  endloop
endfacet
facet normal -0.9999998896174962 0.00046700272236956043 5.170544193617413e-05
  outer loop
    vertex 27.00013434784148 26.4999999098217 1.9999999999999998
    vertex 27.00013434784148 29.499999909821703 7.0
    vertex 27.01052257807133 29.499999909821558 1.9999999999999998
  endloop
endfacet
facet normal -0.9999998896174962 0.00046700272236956043 5.170544193617413e-05
  outer loop
    vertex 27.01053066552189 29.999892052471072 12.199999991643844
    vertex 27.01053066552189 29.999892052471072 9.199999991643844
    vertex 27.01053066552188 28.499892052471054 9.199999991643844
  endloop
endfacet
facet normal -0.9999998896174962 0.00046700272236956043 5.170544193617413e-05
  outer loop
    vertex 27.01053066552189 29.999892052471072 9.199999991643844
    vertex 27.01053066552189 29.999892052471072 12.199999991643844
    vertex 27.010153925932343 31.99989212343742 12.199999991643844
  endloop
endfacet
facet normal -0.9999998896174962 0.00046700272236956043 5.170544193617413e-05
  outer loop
    vertex 27.01053066552189 29.999892052471072 9.199999991643844
    vertex 27.010153925932343 31.99989212343742 12.199999991643844
    vertex 27.01052257807134 29.9999999098216 1.9999999999999998
  endloop
endfacet
facet normal -0.9999998896174962 0.00046700272236956043 5.170544193617413e-05
  outer loop
    vertex 27.00013434784148 26.4999999098217 1.9999999999999998
    vertex 26.999999999999996 10.000000000000002 0.9999999999999999
    vertex 26.999999999999996 10.000000000000002 1.9999999999999998
  endloop
endfacet
facet normal -0.9999998896174962 0.00046700272236956043 5.170544193617413e-05
  outer loop
    vertex 26.999999999999996 10.000000000000002 0.9999999999999999
    vertex 27.00013434784148 26.4999999098217 1.9999999999999998
    vertex 27.01014583848179 31.99999998078795 0.9999999999999999
  endloop
endfacet
facet normal -0.9999998896174962 0.00046700272236956043 5.170544193617413e-05
  outer loop
    vertex 27.01014583848179 31.99999998078795 0.9999999999999999
    vertex 27.00013434784148 26.4999999098217 1.9999999999999998
    vertex 27.01052257807133 29.499999909821558 1.9999999999999998
  endloop
endfacet
facet normal -0.9999998896174962 0.00046700272236956043 5.170544193617413e-05
  outer loop
    vertex 27.01014583848179 31.99999998078795 0.9999999999999999
    vertex 27.01052257807133 29.499999909821558 1.9999999999999998
    vertex 27.01052257807134 29.9999999098216 1.9999999999999998
  endloop
endfacet
facet normal -0.9999998896174962 0.00046700272236956043 5.170544193617413e-05
  outer loop
    vertex 27.01014583848179 31.99999998078795 0.9999999999999999
    vertex 27.01052257807134 29.9999999098216 1.9999999999999998
    vertex 27.010153925932343 31.99989212343742 12.199999991643844
  endloop
endfacet
facet normal 0.0 1.0 0.0
  outer loop
    vertex 60.99999999999999 10.000000000000002 7.0
    vertex 63.99999999999997 10.000000000000002 1.9999999999999998
    vertex 60.99999999999999 10.000000000000002 1.9999999999999998
  endloop
endfacet
facet normal 0.0 1.0 0.0
  outer loop
    vertex 63.99999999999997 10.000000000000002 1.9999999999999998
    vertex 60.99999999999999 10.000000000000002 7.0
    vertex 63.99999999999997 10.000000000000002 7.0
  endloop
endfacet
facet normal 0.0 1.0 0.0
  outer loop
    vertex 64.49999999999997 10.000000000000002 12.2
    vertex 64.49999999999997 10.000000000000002 9.2
    vertex 62.99999999999997 10.000000000000002 9.2
  endloop
endfacet
facet normal 0.0 1.0 0.0
  outer loop
    vertex 66.49999999999999 10.000000000000002 0.9999999999999998
    vertex 64.49999999999997 10.000000000000002 1.9999999999999998
    vertex 66.49999999999999 10.000000000000002 12.2
  endloop
endfacet
facet normal 0.0 1.0 0.0
  outer loop
    vertex 64.49999999999997 10.000000000000002 1.9999999999999998
    vertex 66.49999999999999 10.000000000000002 0.9999999999999998
    vertex 37.0 10.000000000000002 0.9999999999999999
  endloop
endfacet
facet normal 0.0 1.0 0.0
  outer loop
    vertex 64.49999999999997 10.000000000000002 1.9999999999999998
    vertex 37.0 10.000000000000002 0.9999999999999999
    vertex 37.0 10.000000000000002 1.9999999999999998
  endloop
endfacet
facet normal 0.0 1.0 0.0
  outer loop
    vertex 64.49999999999997 10.000000000000002 1.9999999999999998
    vertex 37.0 10.000000000000002 1.9999999999999998
    vertex 60.99999999999999 10.000000000000002 1.9999999999999998
  endloop
endfacet
facet normal 0.0 1.0 0.0
  outer loop
    vertex 64.49999999999997 10.000000000000002 1.9999999999999998
    vertex 60.99999999999999 10.000000000000002 1.9999999999999998
    vertex 63.99999999999997 10.000000000000002 1.9999999999999998
  endloop
endfacet
facet normal 0.0 1.0 0.0
  outer loop
    vertex 66.49999999999999 10.000000000000002 12.2
    vertex 64.49999999999997 10.000000000000002 1.9999999999999998
    vertex 64.49999999999997 10.000000000000002 9.2
  endloop
endfacet
facet normal 0.0 1.0 0.0
  outer loop
    vertex 66.49999999999999 10.000000000000002 12.2
    vertex 64.49999999999997 10.000000000000002 9.2
    vertex 64.49999999999997 10.000000000000002 12.2
  endloop
endfacet
facet normal -1.0 0.0 0.0
  outer loop
    vertex 60.99999999999999 10.000000000000002 7.0
    vertex 60.99999999999999 0.0 1.9999999999999998
    vertex 60.99999999999999 0.0 7.0
  endloop
endfacet
facet normal -1.0 0.0 0.0
  outer loop
    vertex 60.99999999999999 0.0 1.9999999999999998
    vertex 60.99999999999999 10.000000000000002 7.0
    vertex 60.99999999999999 10.000000000000002 1.9999999999999998
  endloop
endfacet
facet normal 5.639932965095795e-16 -1.0 -5.049653961310402e-32
  outer loop
    vertex 37.00013434784148 26.49999990982171 7.0
    vertex 27.00013434784148 26.4999999098217 1.9999999999999998
    vertex 37.00013434784148 26.49999990982171 1.9999999999999998
  endloop
endfacet
facet normal 5.639932965095795e-16 -1.0 -5.049653961310402e-32
  outer loop
    vertex 27.00013434784148 26.4999999098217 1.9999999999999998
    vertex 37.00013434784148 26.49999990982171 7.0
    vertex 27.00013434784148 26.4999999098217 7.0
  endloop
endfacet
facet normal 0.0 0.0 1.0
  outer loop
    vertex 63.99999999999997 0.0 7.0
    vertex 60.99999999999999 10.000000000000002 7.0
    vertex 60.99999999999999 0.0 7.0
  endloop
endfacet
facet normal 0.0 0.0 1.0
  outer loop
    vertex 60.99999999999999 10.000000000000002 7.0
    vertex 63.99999999999997 0.0 7.0
    vertex 63.99999999999997 10.000000000000002 7.0
  endloop
endfacet
facet normal 0.0 0.0 -1.0
  outer loop
    vertex 64.49999999999997 10.000000000000002 9.2
    vertex 62.99999999999997 0.0 9.2
    vertex 62.99999999999997 10.000000000000002 9.2
  endloop
endfacet
facet normal 0.0 0.0 -1.0
  outer loop
    vertex 62.99999999999997 0.0 9.2
    vertex 64.49999999999997 10.000000000000002 9.2
    vertex 64.49999999999997 0.0 9.2
  endloop
endfacet
facet normal 0.0 0.0 1.0
  outer loop
    vertex 36.99999999999999 -19.500000000000004 7.0
    vertex 26.999999999999996 -16.5 7.0
    vertex 26.999999999999996 -19.500000000000004 7.0
  endloop
endfacet
facet normal 0.0 0.0 1.0
  outer loop
    vertex 26.999999999999996 -16.5 7.0
    vertex 36.99999999999999 -19.500000000000004 7.0
    vertex 36.99999999999999 -16.5 7.0
  endloop
endfacet
facet normal -1.0 0.0 0.0
  outer loop
    vertex 64.49999999999997 10.000000000000002 9.2
    vertex 64.49999999999997 0.0 1.9999999999999998
    vertex 64.49999999999997 0.0 9.2
  endloop
endfacet
facet normal -1.0 0.0 0.0
  outer loop
    vertex 64.49999999999997 0.0 1.9999999999999998
    vertex 64.49999999999997 10.000000000000002 9.2
    vertex 64.49999999999997 10.000000000000002 1.9999999999999998
  endloop
endfacet
facet normal 0.0 0.0 1.0
  outer loop
    vertex 64.49999999999997 0.0 1.9999999999999998
    vertex 63.99999999999997 10.000000000000002 1.9999999999999998
    vertex 63.99999999999997 0.0 1.9999999999999998
  endloop
endfacet
facet normal 0.0 0.0 1.0
  outer loop
    vertex 63.99999999999997 10.000000000000002 1.9999999999999998
    vertex 64.49999999999997 0.0 1.9999999999999998
    vertex 64.49999999999997 10.000000000000002 1.9999999999999998
  endloop
endfacet
facet normal 0.0 0.0 1.0
  outer loop
    vertex 66.49999999999999 0.0 12.2
    vertex 64.49999999999997 10.000000000000002 12.2
    vertex 64.49999999999997 0.0 12.2
  endloop
endfacet
facet normal 0.0 0.0 1.0
  outer loop
    vertex 64.49999999999997 10.000000000000002 12.2
    vertex 66.49999999999999 0.0 12.2
    vertex 66.49999999999999 10.000000000000002 12.2
  endloop
endfacet
facet normal -0.8944271909999162 0.0 0.4472135954999573
  outer loop
    vertex 64.49999999999997 10.000000000000002 12.2
    vertex 62.99999999999997 0.0 9.2
    vertex 64.49999999999997 0.0 12.2
  endloop
endfacet
facet normal -0.8944271909999162 0.0 0.4472135954999573
  outer loop
    vertex 62.99999999999997 0.0 9.2
    vertex 64.49999999999997 10.000000000000002 12.2
    vertex 62.99999999999997 10.000000000000002 9.2
  endloop
endfacet
facet normal -1.579587366586342e-14 0.9999999999536304 9.630120589736524e-06
  outer loop
    vertex 27.010153925932343 31.99989212343742 12.199999991643844
    vertex 37.00500204014054 31.999999980788107 0.9999999999999999
    vertex 27.01014583848179 31.99999998078795 0.9999999999999999
  endloop
endfacet
facet normal -1.579587366586342e-14 0.9999999999536304 9.630120589736524e-06
  outer loop
    vertex 37.00500204014054 31.999999980788107 0.9999999999999999
    vertex 27.010153925932343 31.99989212343742 12.199999991643844
    vertex 37.01015392593238 31.99989212343758 12.199999991643844
  endloop
endfacet
facet normal 0.0 0.0 1.0
  outer loop
    vertex 27.01053066552189 29.999892052471072 12.199999991643844
    vertex 37.01015392593238 31.99989212343758 12.199999991643844
    vertex 27.010153925932343 31.99989212343742 12.199999991643844
  endloop
endfacet
facet normal 0.0 0.0 1.0
  outer loop
    vertex 37.01015392593238 31.99989212343758 12.199999991643844
    vertex 27.01053066552189 29.999892052471072 12.199999991643844
    vertex 37.010530665521884 29.999892052471186 12.199999991643844
  endloop
endfacet
facet normal 0.0 0.0 -1.0
  outer loop
    vertex 27.01053066552189 29.999892052471072 9.199999991643844
    vertex 37.010530665521905 28.49989205247121 9.199999991643844
    vertex 27.01053066552188 28.499892052471054 9.199999991643844
  endloop
endfacet
facet normal 0.0 0.0 -1.0
  outer loop
    vertex 37.010530665521905 28.49989205247121 9.199999991643844
    vertex 27.01053066552189 29.999892052471072 9.199999991643844
    vertex 37.010530665521884 29.999892052471186 9.199999991643844
  endloop
endfacet
facet normal 1.1279866283323767e-14 -0.9999999998877971 -1.4980187589251911e-05
  outer loop
    vertex 37.010530665521884 29.999892052471186 9.199999991643844
    vertex 27.01052257807134 29.9999999098216 1.9999999999999998
    vertex 37.01052257807133 29.999999909821714 1.9999999999999998
  endloop
endfacet
facet normal 1.1279866283323767e-14 -0.9999999998877971 -1.4980187589251911e-05
  outer loop
    vertex 27.01052257807134 29.9999999098216 1.9999999999999998
    vertex 37.010530665521884 29.999892052471186 9.199999991643844
    vertex 27.01053066552189 29.999892052471072 9.199999991643844
  endloop
endfacet
facet normal 0.0 0.0 1.0
  outer loop
    vertex 37.01052257807136 29.499999909821703 1.9999999999999998
    vertex 27.01052257807134 29.9999999098216 1.9999999999999998
    vertex 27.01052257807133 29.499999909821558 1.9999999999999998
  endloop
endfacet
facet normal 0.0 0.0 1.0
  outer loop
    vertex 27.01052257807134 29.9999999098216 1.9999999999999998
    vertex 37.01052257807136 29.499999909821703 1.9999999999999998
    vertex 37.01052257807133 29.999999909821714 1.9999999999999998
  endloop
endfacet
facet normal 1.2112339990711873e-14 -0.8944271909999162 0.4472135954999573
  outer loop
    vertex 37.010530665521884 29.999892052471186 12.199999991643844
    vertex 27.01053066552188 28.499892052471054 9.199999991643844
    vertex 37.010530665521905 28.49989205247121 9.199999991643844
  endloop
endfacet
facet normal 1.2112339990711873e-14 -0.8944271909999162 0.4472135954999573
  outer loop
    vertex 27.01053066552188 28.499892052471054 9.199999991643844
    vertex 37.010530665521884 29.999892052471186 12.199999991643844
    vertex 27.01053066552189 29.999892052471072 12.199999991643844
  endloop
endfacet
facet normal -1.0 1.4099832412739486e-16 -2.819966482547898e-16
  outer loop
    vertex 7.049916206369744e-16 10.000000000000002 7.0
    vertex 7.049916206369744e-16 0.0 1.9999999999999991
    vertex 7.049916206369744e-16 0.0 7.0
  endloop
endfacet
facet normal -1.0 1.4099832412739486e-16 -2.819966482547898e-16
  outer loop
    vertex 7.049916206369744e-16 0.0 1.9999999999999991
    vertex 7.049916206369744e-16 10.000000000000002 7.0
    vertex 3.524958103184872e-15 9.999999999999996 1.9999999999999991
  endloop
endfacet
facet normal -5.1094204644733375e-17 1.0 2.5015752877303914e-17
  outer loop
    vertex -2.500000000000009 10.000000000000002 0.9999999999999998
    vertex -0.5000000000000012 10.000000000000002 1.9999999999999991
    vertex 26.999999999999996 10.000000000000002 0.9999999999999999
  endloop
endfacet
facet normal -5.1094204644733375e-17 1.0 2.5015752877303914e-17
  outer loop
    vertex -0.5000000000000012 10.000000000000002 1.9999999999999991
    vertex -2.500000000000009 10.000000000000002 0.9999999999999998
    vertex -2.500000000000009 9.999999999999996 12.200000000000001
  endloop
endfacet
facet normal -5.1094204644733375e-17 1.0 2.5015752877303914e-17
  outer loop
    vertex -0.5000000000000012 10.000000000000002 1.9999999999999991
    vertex -2.500000000000009 9.999999999999996 12.200000000000001
    vertex -0.5000000000000004 10.000000000000002 9.2
  endloop
endfacet
facet normal -5.1094204644733375e-17 1.0 2.5015752877303914e-17
  outer loop
    vertex -0.5000000000000004 10.000000000000002 9.2
    vertex -2.500000000000009 9.999999999999996 12.200000000000001
    vertex 0.9999999999999968 10.000000000000002 9.2
  endloop
endfacet
facet normal -5.1094204644733375e-17 1.0 2.5015752877303914e-17
  outer loop
    vertex 0.9999999999999968 10.000000000000002 9.2
    vertex -2.500000000000009 9.999999999999996 12.200000000000001
    vertex -0.5000000000000004 10.000000000000002 12.200000000000001
  endloop
endfacet
facet normal -5.1094204644733375e-17 1.0 2.5015752877303914e-17
  outer loop
    vertex 7.049916206369744e-16 10.000000000000002 7.0
    vertex 3.0 10.000000000000002 1.9999999999999998
    vertex 3.524958103184872e-15 9.999999999999996 1.9999999999999991
  endloop
endfacet
facet normal -5.1094204644733375e-17 1.0 2.5015752877303914e-17
  outer loop
    vertex 3.0 10.000000000000002 1.9999999999999998
    vertex 7.049916206369744e-16 10.000000000000002 7.0
    vertex 3.0 10.000000000000002 7.0
  endloop
endfacet
facet normal -5.1094204644733375e-17 1.0 2.5015752877303914e-17
  outer loop
    vertex 26.999999999999996 10.000000000000002 0.9999999999999999
    vertex 3.524958103184872e-15 9.999999999999996 1.9999999999999991
    vertex 26.999999999999996 10.000000000000002 1.9999999999999998
  endloop
endfacet
facet normal -5.1094204644733375e-17 1.0 2.5015752877303914e-17
  outer loop
    vertex 3.524958103184872e-15 9.999999999999996 1.9999999999999991
    vertex 26.999999999999996 10.000000000000002 0.9999999999999999
    vertex -0.5000000000000012 10.000000000000002 1.9999999999999991
  endloop
endfacet
facet normal -5.1094204644733375e-17 1.0 2.5015752877303914e-17
  outer loop
    vertex 26.999999999999996 10.000000000000002 1.9999999999999998
    vertex 3.524958103184872e-15 9.999999999999996 1.9999999999999991
    vertex 3.0 10.000000000000002 1.9999999999999998
  endloop
endfacet
facet normal 0.0 0.0 1.0
  outer loop
    vertex 7.049916206369744e-16 0.0 1.9999999999999991
    vertex -0.5000000000000012 10.000000000000002 1.9999999999999991
    vertex -0.500000000000004 2.8199664825478975e-15 1.9999999999999991
  endloop
endfacet
facet normal 0.0 0.0 1.0
  outer loop
    vertex -0.5000000000000012 10.000000000000002 1.9999999999999991
    vertex 7.049916206369744e-16 0.0 1.9999999999999991
    vertex 3.524958103184872e-15 9.999999999999996 1.9999999999999991
  endloop
endfacet
facet normal 0.0 0.0 -1.0
  outer loop
    vertex -0.5000000000000004 10.000000000000002 9.2
    vertex 0.9999999999999911 -2.8199664825478975e-15 9.2
    vertex -0.5000000000000033 2.8199664825478975e-15 9.2
  endloop
endfacet
facet normal 0.0 0.0 -1.0
  outer loop
    vertex 0.9999999999999911 -2.8199664825478975e-15 9.2
    vertex -0.5000000000000004 10.000000000000002 9.2
    vertex 0.9999999999999968 10.000000000000002 9.2
  endloop
endfacet
facet normal 0.8944271909999164 -3.8038753689839e-16 0.44721359549995693
  outer loop
    vertex 0.9999999999999968 10.000000000000002 9.2
    vertex -0.5000000000000033 2.8199664825478975e-15 12.200000000000001
    vertex 0.9999999999999911 -2.8199664825478975e-15 9.2
  endloop
endfacet
facet normal 0.8944271909999164 -3.8038753689839e-16 0.44721359549995693
  outer loop
    vertex -0.5000000000000033 2.8199664825478975e-15 12.200000000000001
    vertex 0.9999999999999968 10.000000000000002 9.2
    vertex -0.5000000000000004 10.000000000000002 12.200000000000001
  endloop
endfacet
facet normal 1.0 -2.8199664825478977e-16 -9.791550286624639e-17
  outer loop
    vertex -0.5000000000000012 10.000000000000002 1.9999999999999991
    vertex -0.5000000000000033 2.8199664825478975e-15 9.2
    vertex -0.500000000000004 2.8199664825478975e-15 1.9999999999999991
  endloop
endfacet
facet normal 1.0 -2.8199664825478977e-16 -9.791550286624639e-17
  outer loop
    vertex -0.5000000000000033 2.8199664825478975e-15 9.2
    vertex -0.5000000000000012 10.000000000000002 1.9999999999999991
    vertex -0.5000000000000004 10.000000000000002 9.2
  endloop
endfacet
facet normal 0.0 0.0 1.0
  outer loop
    vertex -0.5000000000000033 2.8199664825478975e-15 12.200000000000001
    vertex -2.500000000000009 9.999999999999996 12.200000000000001
    vertex -2.5000000000000147 2.8199664825478975e-15 12.200000000000001
  endloop
endfacet
facet normal 0.0 0.0 1.0
  outer loop
    vertex -2.500000000000009 9.999999999999996 12.200000000000001
    vertex -0.5000000000000033 2.8199664825478975e-15 12.200000000000001
    vertex -0.5000000000000004 10.000000000000002 12.200000000000001
  endloop
endfacet
facet normal -2.502549584857834e-16 0.8944271909999159 0.4472135954999579
  outer loop
    vertex 26.999999999999986 -20.000000000000007 12.2
    vertex 37.0 -18.500000000000007 9.2
    vertex 27.000000000000025 -18.500000000000018 9.2
  endloop
endfacet
facet normal -2.502549584857834e-16 0.8944271909999159 0.4472135954999579
  outer loop
    vertex 37.0 -18.500000000000007 9.2
    vertex 26.999999999999986 -20.000000000000007 12.2
    vertex 36.99999999999999 -20.000000000000014 12.2
  endloop
endfacet
facet normal 5.63993296509579e-16 1.0 1.2569502106717675e-32
  outer loop
    vertex 26.999999999999986 -20.000000000000007 9.2
    vertex 36.99999999999999 -20.000000000000014 1.9999999999999998
    vertex 26.999999999999986 -20.000000000000007 1.9999999999999998
  endloop
endfacet
facet normal 5.63993296509579e-16 1.0 1.2569502106717675e-32
  outer loop
    vertex 36.99999999999999 -20.000000000000014 1.9999999999999998
    vertex 26.999999999999986 -20.000000000000007 9.2
    vertex 36.99999999999999 -20.000000000000014 9.2
  endloop
endfacet
facet normal 0.0 0.0 -1.0
  outer loop
    vertex 27.000000000000025 -18.500000000000018 9.2
    vertex 36.99999999999999 -20.000000000000014 9.2
    vertex 26.999999999999986 -20.000000000000007 9.2
  endloop
endfacet
facet normal 0.0 0.0 -1.0
  outer loop
    vertex 36.99999999999999 -20.000000000000014 9.2
    vertex 27.000000000000025 -18.500000000000018 9.2
    vertex 37.0 -18.500000000000007 9.2
  endloop
endfacet
facet normal 0.0 0.0 1.0
  outer loop
    vertex 36.99999999999999 -20.000000000000014 1.9999999999999998
    vertex 26.99999999999999 -19.499999999999993 1.9999999999999998
    vertex 26.999999999999986 -20.000000000000007 1.9999999999999998
  endloop
endfacet
facet normal 0.0 0.0 1.0
  outer loop
    vertex 26.99999999999999 -19.499999999999993 1.9999999999999998
    vertex 36.99999999999999 -20.000000000000014 1.9999999999999998
    vertex 36.99999999999999 -19.500000000000004 1.9999999999999998
  endloop
endfacet
facet normal 0.0 0.0 1.0
  outer loop
    vertex 27.00000000000003 -22.000000000000007 12.2
    vertex 36.99999999999999 -20.000000000000014 12.2
    vertex 26.999999999999986 -20.000000000000007 12.2
  endloop
endfacet
facet normal 0.0 0.0 1.0
  outer loop
    vertex 36.99999999999999 -20.000000000000014 12.2
    vertex 27.00000000000003 -22.000000000000007 12.2
    vertex 36.999999999999986 -21.999999999999996 12.2
  endloop
endfacet
facet normal -1.1279865930191585e-15 -1.0 -2.255973186038317e-15
  outer loop
    vertex 26.999999999999996 -19.500000000000004 7.0
    vertex 26.99999999999999 -19.499999999999993 1.9999999999999998
    vertex 36.99999999999999 -19.500000000000004 1.9999999999999998
  endloop
endfacet
facet normal 0.0 -1.0 0.0
  outer loop
    vertex 26.999999999999996 -19.500000000000004 7.0
    vertex 36.99999999999999 -19.500000000000004 1.9999999999999998
    vertex 36.99999999999999 -19.500000000000004 7.0
  endloop
endfacet
facet normal -7.331912854624534e-15 1.0 -1.467905882900089e-14
  outer loop
    vertex 27.00013434784148 29.499999909821703 7.0
    vertex 37.01052257807136 29.499999909821703 1.9999999999999998
    vertex 27.01052257807133 29.499999909821558 1.9999999999999998
  endloop
endfacet
facet normal -7.331912854624534e-15 1.0 -1.467905882900089e-14
  outer loop
    vertex 37.01052257807136 29.499999909821703 1.9999999999999998
    vertex 27.00013434784148 29.499999909821703 7.0
    vertex 37.00013434784148 29.499999909821703 7.0
  endloop
endfacet
facet normal 0.9999999020626931 -0.0003697853706146036 -0.0002431735674818239
  outer loop
    vertex 37.00500204014054 31.999999980788107 0.9999999999999999
    vertex 37.0 10.000000000000002 1.9999999999999998
    vertex 37.0 10.000000000000002 0.9999999999999999
  endloop
endfacet
facet normal 0.9999999020626931 -0.0003697853706146036 -0.0002431735674818239
  outer loop
    vertex 37.0 10.000000000000002 1.9999999999999998
    vertex 37.00500204014054 31.999999980788107 0.9999999999999999
    vertex 37.00013434784148 26.49999990982171 1.9999999999999998
  endloop
endfacet
facet normal 0.9999999020626931 -0.0003697853706146036 -0.0002431735674818239
  outer loop
    vertex 37.00013434784148 26.49999990982171 1.9999999999999998
    vertex 37.00500204014054 31.999999980788107 0.9999999999999999
    vertex 37.01052257807136 29.499999909821703 1.9999999999999998
  endloop
endfacet
facet normal 0.9999999020626931 -0.0003697853706146036 -0.0002431735674818239
  outer loop
    vertex 37.00013434784148 26.49999990982171 1.9999999999999998
    vertex 37.01052257807136 29.499999909821703 1.9999999999999998
    vertex 37.00013434784148 26.49999990982171 7.0
  endloop
endfacet
facet normal 0.9999999020626931 -0.0003697853706146036 -0.0002431735674818239
  outer loop
    vertex 37.01052257807136 29.499999909821703 1.9999999999999998
    vertex 37.00500204014054 31.999999980788107 0.9999999999999999
    vertex 37.01052257807133 29.999999909821714 1.9999999999999998
  endloop
endfacet
facet normal 0.9999999020626931 -0.0003697853706146036 -0.0002431735674818239
  outer loop
    vertex 37.01052257807133 29.999999909821714 1.9999999999999998
    vertex 37.00500204014054 31.999999980788107 0.9999999999999999
    vertex 37.01015392593238 31.99989212343758 12.199999991643844
  endloop
endfacet
facet normal 0.9999999020626931 -0.0003697853706146036 -0.0002431735674818239
  outer loop
    vertex 37.010530665521884 29.999892052471186 9.199999991643844
    vertex 37.010530665521884 29.999892052471186 12.199999991643844
    vertex 37.010530665521905 28.49989205247121 9.199999991643844
  endloop
endfacet
facet normal 0.9999999020626931 -0.0003697853706146036 -0.0002431735674818239
  outer loop
    vertex 37.010530665521884 29.999892052471186 12.199999991643844
    vertex 37.010530665521884 29.999892052471186 9.199999991643844
    vertex 37.01052257807133 29.999999909821714 1.9999999999999998
  endloop
endfacet
facet normal 0.9999999020626931 -0.0003697853706146036 -0.0002431735674818239
  outer loop
    vertex 37.010530665521884 29.999892052471186 12.199999991643844
    vertex 37.01052257807133 29.999999909821714 1.9999999999999998
    vertex 37.01015392593238 31.99989212343758 12.199999991643844
  endloop
endfacet
facet normal 0.9999999020626931 -0.0003697853706146036 -0.0002431735674818239
  outer loop
    vertex 37.00013434784148 29.499999909821703 7.0
    vertex 37.00013434784148 26.49999990982171 7.0
    vertex 37.01052257807136 29.499999909821703 1.9999999999999998
  endloop
endfacet
facet normal 1.0 0.0 0.0
  outer loop
    vertex 66.49999999999999 10.000000000000002 0.9999999999999998
    vertex 66.49999999999999 0.0 12.2
    vertex 66.49999999999999 0.0 0.9999999999999998
  endloop
endfacet
facet normal 1.0 0.0 0.0
  outer loop
    vertex 66.49999999999999 0.0 12.2
    vertex 66.49999999999999 10.000000000000002 0.9999999999999998
    vertex 66.49999999999999 10.000000000000002 12.2
  endloop
endfacet
facet normal 0.0 -1.0 0.0
  outer loop
    vertex 66.49999999999999 0.0 0.9999999999999998
    vertex 64.49999999999997 0.0 1.9999999999999998
    vertex 36.999999999999986 0.0 0.9999999999999998
  endloop
endfacet
facet normal 0.0 -1.0 0.0
  outer loop
    vertex 64.49999999999997 0.0 1.9999999999999998
    vertex 66.49999999999999 0.0 0.9999999999999998
    vertex 66.49999999999999 0.0 12.2
  endloop
endfacet
facet normal 0.0 -1.0 0.0
  outer loop
    vertex 64.49999999999997 0.0 1.9999999999999998
    vertex 66.49999999999999 0.0 12.2
    vertex 64.49999999999997 0.0 9.2
  endloop
endfacet
facet normal 0.0 -1.0 0.0
  outer loop
    vertex 64.49999999999997 0.0 9.2
    vertex 66.49999999999999 0.0 12.2
    vertex 62.99999999999997 0.0 9.2
  endloop
endfacet
facet normal 0.0 -1.0 0.0
  outer loop
    vertex 62.99999999999997 0.0 9.2
    vertex 66.49999999999999 0.0 12.2
    vertex 64.49999999999997 0.0 12.2
  endloop
endfacet
facet normal 0.0 -1.0 0.0
  outer loop
    vertex 63.99999999999997 0.0 7.0
    vertex 60.99999999999999 0.0 1.9999999999999998
    vertex 63.99999999999997 0.0 1.9999999999999998
  endloop
endfacet
facet normal 0.0 -1.0 0.0
  outer loop
    vertex 60.99999999999999 0.0 1.9999999999999998
    vertex 63.99999999999997 0.0 7.0
    vertex 60.99999999999999 0.0 7.0
  endloop
endfacet
facet normal 0.0 -1.0 0.0
  outer loop
    vertex 64.49999999999997 0.0 1.9999999999999998
    vertex 36.999999999999986 0.0 1.9999999999999998
    vertex 36.999999999999986 0.0 0.9999999999999998
  endloop
endfacet
facet normal 0.0 -1.0 0.0
  outer loop
    vertex 36.999999999999986 0.0 1.9999999999999998
    vertex 64.49999999999997 0.0 1.9999999999999998
    vertex 63.99999999999997 0.0 1.9999999999999998
  endloop
endfacet
facet normal 0.0 -1.0 0.0
  outer loop
    vertex 36.999999999999986 0.0 1.9999999999999998
    vertex 63.99999999999997 0.0 1.9999999999999998
    vertex 60.99999999999999 0.0 1.9999999999999998
  endloop
endfacet
facet normal 7.166399542635179e-16 -1.0 1.1093651072896486e-16
  outer loop
    vertex 36.999999999999986 -21.999999999999996 12.2
    vertex 27.000000000000014 -22.000000000000004 0.9999999999999998
    vertex 36.999999999999986 -22.000000000000004 0.9999999999999998
  endloop
endfacet
facet normal 7.166399542635179e-16 -1.0 1.1093651072896486e-16
  outer loop
    vertex 27.000000000000014 -22.000000000000004 0.9999999999999998
    vertex 36.999999999999986 -21.999999999999996 12.2
    vertex 27.00000000000003 -22.000000000000007 12.2
  endloop
endfacet
facet normal -2.5507147803015494e-17 -1.0 1.0116056215579254e-16
  outer loop
    vertex 26.999999999999996 0.0 1.9999999999999998
    vertex -2.5000000000000115 0.0 0.9999999999999998
    vertex 27.000000000000014 0.0 0.9999999999999998
  endloop
endfacet
facet normal -2.5507147803015494e-17 -1.0 1.0116056215579254e-16
  outer loop
    vertex -2.5000000000000115 0.0 0.9999999999999998
    vertex 26.999999999999996 0.0 1.9999999999999998
    vertex 7.049916206369744e-16 0.0 1.9999999999999991
  endloop
endfacet
facet normal -2.5507147803015494e-17 -1.0 1.0116056215579254e-16
  outer loop
    vertex 7.049916206369744e-16 0.0 1.9999999999999991
    vertex 26.999999999999996 0.0 1.9999999999999998
    vertex 3.0 0.0 1.9999999999999998
  endloop
endfacet
facet normal -2.5507147803015494e-17 -1.0 1.0116056215579254e-16
  outer loop
    vertex 7.049916206369744e-16 0.0 1.9999999999999991
    vertex 3.0 0.0 1.9999999999999998
    vertex 7.049916206369744e-16 0.0 7.0
  endloop
endfacet
facet normal -2.5507147803015494e-17 -1.0 1.0116056215579254e-16
  outer loop
    vertex 7.049916206369744e-16 0.0 7.0
    vertex 3.0 0.0 1.9999999999999998
    vertex 3.0 0.0 7.0
  endloop
endfacet
facet normal -2.5507147803015494e-17 -1.0 1.0116056215579254e-16
  outer loop
    vertex -0.5000000000000033 2.8199664825478975e-15 12.200000000000001
    vertex -0.5000000000000033 2.8199664825478975e-15 9.2
    vertex 0.9999999999999911 -2.8199664825478975e-15 9.2
  endloop
endfacet
facet normal -2.5507147803015494e-17 -1.0 1.0116056215579254e-16
  outer loop
    vertex -2.5000000000000115 0.0 0.9999999999999998
    vertex -0.500000000000004 2.8199664825478975e-15 1.9999999999999991
    vertex -2.5000000000000147 2.8199664825478975e-15 12.200000000000001
  endloop
endfacet
facet normal -2.5507147803015494e-17 -1.0 1.0116056215579254e-16
  outer loop
    vertex -0.500000000000004 2.8199664825478975e-15 1.9999999999999991
    vertex -2.5000000000000115 0.0 0.9999999999999998
    vertex 7.049916206369744e-16 0.0 1.9999999999999991
  endloop
endfacet
facet normal -2.5507147803015494e-17 -1.0 1.0116056215579254e-16
  outer loop
    vertex -2.5000000000000147 2.8199664825478975e-15 12.200000000000001
    vertex -0.500000000000004 2.8199664825478975e-15 1.9999999999999991
    vertex -0.5000000000000033 2.8199664825478975e-15 9.2
  endloop
endfacet
facet normal -2.5507147803015494e-17 -1.0 1.0116056215579254e-16
  outer loop
    vertex -2.5000000000000147 2.8199664825478975e-15 12.200000000000001
    vertex -0.5000000000000033 2.8199664825478975e-15 9.2
    vertex -0.5000000000000033 2.8199664825478975e-15 12.200000000000001
  endloop
endfacet
facet normal -1.0 4.2299497238218475e-16 -1.258913608280311e-16
  outer loop
    vertex -2.5000000000000147 2.8199664825478975e-15 12.200000000000001
    vertex -2.500000000000009 10.000000000000002 0.9999999999999998
    vertex -2.5000000000000115 0.0 0.9999999999999998
  endloop
endfacet
facet normal -1.0 4.2299497238218475e-16 -1.258913608280311e-16
  outer loop
    vertex -2.500000000000009 10.000000000000002 0.9999999999999998
    vertex -2.5000000000000147 2.8199664825478975e-15 12.200000000000001
    vertex -2.500000000000009 9.999999999999996 12.200000000000001
  endloop
endfacet
facet normal -1.687730480419689e-20 3.687741433534769e-18 -1.0
  outer loop
    vertex -2.500000000000009 10.000000000000002 0.9999999999999998
    vertex 27.000000000000014 0.0 0.9999999999999998
    vertex -2.5000000000000115 0.0 0.9999999999999998
  endloop
endfacet
facet normal -1.687730480419689e-20 3.687741433534769e-18 -1.0
  outer loop
    vertex 27.000000000000014 0.0 0.9999999999999998
    vertex -2.500000000000009 10.000000000000002 0.9999999999999998
    vertex 26.999999999999996 10.000000000000002 0.9999999999999999
  endloop
endfacet
facet normal -1.687730480419689e-20 3.687741433534769e-18 -1.0
  outer loop
    vertex 27.000000000000014 0.0 0.9999999999999998
    vertex 26.999999999999996 10.000000000000002 0.9999999999999999
    vertex 27.01014583848179 31.99999998078795 0.9999999999999999
  endloop
endfacet
facet normal -1.687730480419689e-20 3.687741433534769e-18 -1.0
  outer loop
    vertex 27.000000000000014 0.0 0.9999999999999998
    vertex 27.01014583848179 31.99999998078795 0.9999999999999999
    vertex 27.000000000000014 -22.000000000000004 0.9999999999999998
  endloop
endfacet
facet normal -1.687730480419689e-20 3.687741433534769e-18 -1.0
  outer loop
    vertex 27.000000000000014 -22.000000000000004 0.9999999999999998
    vertex 27.01014583848179 31.99999998078795 0.9999999999999999
    vertex 36.999999999999986 -22.000000000000004 0.9999999999999998
  endloop
endfacet
facet normal -1.687730480419689e-20 3.687741433534769e-18 -1.0
  outer loop
    vertex 36.999999999999986 -22.000000000000004 0.9999999999999998
    vertex 27.01014583848179 31.99999998078795 0.9999999999999999
    vertex 36.999999999999986 0.0 0.9999999999999998
  endloop
endfacet
facet normal -1.687730480419689e-20 3.687741433534769e-18 -1.0
  outer loop
    vertex 36.999999999999986 -22.000000000000004 0.9999999999999998
    vertex 36.999999999999986 0.0 0.9999999999999998
    vertex 36.999999999999986 -7.000000000000001 0.9999999999999998
  endloop
endfacet
facet normal -1.687730480419689e-20 3.687741433534769e-18 -1.0
  outer loop
    vertex 36.999999999999986 -22.000000000000004 0.9999999999999998
    vertex 36.999999999999986 -7.000000000000001 0.9999999999999998
    vertex 36.999999999999986 -9.500000000000002 0.9999999999999998
  endloop
endfacet
facet normal -1.687730480419689e-20 3.687741433534769e-18 -1.0
  outer loop
    vertex 27.01014583848179 31.99999998078795 0.9999999999999999
    vertex 37.0 10.000000000000002 0.9999999999999999
    vertex 36.999999999999986 0.0 0.9999999999999998
  endloop
endfacet
facet normal -1.687730480419689e-20 3.687741433534769e-18 -1.0
  outer loop
    vertex 37.0 10.000000000000002 0.9999999999999999
    vertex 27.01014583848179 31.99999998078795 0.9999999999999999
    vertex 37.00500204014054 31.999999980788107 0.9999999999999999
  endloop
endfacet
facet normal -1.687730480419689e-20 3.687741433534769e-18 -1.0
  outer loop
    vertex 37.0 10.000000000000002 0.9999999999999999
    vertex 66.49999999999999 0.0 0.9999999999999998
    vertex 36.999999999999986 0.0 0.9999999999999998
  endloop
endfacet
facet normal -1.687730480419689e-20 3.687741433534769e-18 -1.0
  outer loop
    vertex 66.49999999999999 0.0 0.9999999999999998
    vertex 37.0 10.000000000000002 0.9999999999999999
    vertex 66.49999999999999 10.000000000000002 0.9999999999999998
  endloop
endfacet
facet normal 1.0 -5.837219659407361e-17 -2.317102755338241e-16
  outer loop
    vertex 36.99999999999999 -20.000000000000014 1.9999999999999998
    vertex 36.99999999999999 -20.000000000000014 12.2
    vertex 36.999999999999986 -21.999999999999996 12.2
  endloop
endfacet
facet normal 1.0 -5.837219659407361e-17 -2.317102755338241e-16
  outer loop
    vertex 36.99999999999999 -20.000000000000014 12.2
    vertex 36.99999999999999 -20.000000000000014 1.9999999999999998
    vertex 36.99999999999999 -20.000000000000014 9.2
  endloop
endfacet
facet normal 1.0 -5.837219659407361e-17 -2.317102755338241e-16
  outer loop
    vertex 36.99999999999999 -20.000000000000014 12.2
    vertex 36.99999999999999 -20.000000000000014 9.2
    vertex 37.0 -18.500000000000007 9.2
  endloop
endfacet
facet normal 1.0 -5.837219659407361e-17 -2.317102755338241e-16
  outer loop
    vertex 36.999999999999986 -22.000000000000004 0.9999999999999998
    vertex 36.99999999999999 -20.000000000000014 1.9999999999999998
    vertex 36.999999999999986 -21.999999999999996 12.2
  endloop
endfacet
facet normal 1.0 -5.837219659407361e-17 -2.317102755338241e-16
  outer loop
    vertex 36.99999999999999 -20.000000000000014 1.9999999999999998
    vertex 36.999999999999986 -22.000000000000004 0.9999999999999998
    vertex 36.999999999999986 -9.500000000000002 0.9999999999999998
  endloop
endfacet
facet normal 1.0 -5.837219659407361e-17 -2.317102755338241e-16
  outer loop
    vertex 36.99999999999999 -20.000000000000014 1.9999999999999998
    vertex 36.999999999999986 -9.500000000000002 0.9999999999999998
    vertex 36.99999999999999 -19.500000000000004 1.9999999999999998
  endloop
endfacet
facet normal 1.0 5.598095347748205e-16 1.2014430822382887e-16
  outer loop
    vertex 36.99999999999999 -19.500000000000004 1.9999999999999998
    vertex 36.99999999999999 -16.5 1.9999999999999998
    vertex 36.99999999999999 -19.500000000000004 7.0
  endloop
endfacet
facet normal 1.0 5.598095347748205e-16 1.2014430822382887e-16
  outer loop
    vertex 36.99999999999999 -16.5 1.9999999999999998
    vertex 36.99999999999999 -19.500000000000004 1.9999999999999998
    vertex 36.999999999999986 -9.500000000000002 0.9999999999999998
  endloop
endfacet
facet normal 1.0 5.598095347748205e-16 1.2014430822382887e-16
  outer loop
    vertex 36.99999999999999 -16.5 1.9999999999999998
    vertex 36.999999999999986 -9.500000000000002 0.9999999999999998
    vertex 36.99999999999999 -14.500000000000002 1.9999999999999998
  endloop
endfacet
facet normal 1.0 5.598095347748205e-16 1.2014430822382887e-16
  outer loop
    vertex 36.99999999999999 -14.500000000000002 1.9999999999999998
    vertex 36.999999999999986 -9.500000000000002 0.9999999999999998
    vertex 36.999999999999986 -7.000000000000001 0.9999999999999998
  endloop
endfacet
facet normal 1.0 5.598095347748205e-16 1.2014430822382887e-16
  outer loop
    vertex 36.99999999999999 -16.5 3.9999999999999982
    vertex 36.99999999999999 -19.500000000000004 7.0
    vertex 36.99999999999999 -16.5 1.9999999999999998
  endloop
endfacet
facet normal 1.0 3.1544465957141375e-16 -1.6370490091550953e-15
  outer loop
    vertex 36.999999999999986 -7.000000000000001 0.9999999999999998
    vertex 36.999999999999986 0.0 1.9999999999999998
    vertex 36.99999999999999 -14.500000000000002 1.9999999999999998
  endloop
endfacet
facet normal 1.0 3.1544465957141375e-16 -1.6370490091550953e-15
  outer loop
    vertex 36.999999999999986 0.0 1.9999999999999998
    vertex 36.999999999999986 -7.000000000000001 0.9999999999999998
    vertex 36.999999999999986 0.0 0.9999999999999998
  endloop
endfacet
facet normal 1.0 0.0 0.0
  outer loop
    vertex 36.99999999999999 -16.5 7.0
    vertex 36.99999999999999 -19.500000000000004 7.0
    vertex 36.99999999999999 -16.5 3.9999999999999982
  endloop
endfacet
facet normal -1.0 3.0230966042567165e-16 8.322485233805711e-16
  outer loop
    vertex 27.000000000000025 -18.500000000000018 9.2
    vertex 26.999999999999986 -20.000000000000007 9.2
    vertex 26.999999999999986 -20.000000000000007 12.2
  endloop
endfacet
facet normal -1.0 3.0230966042567165e-16 8.322485233805711e-16
  outer loop
    vertex 26.999999999999996 -16.5 7.0
    vertex 26.99999999999999 -19.499999999999993 1.9999999999999998
    vertex 26.999999999999996 -19.500000000000004 7.0
  endloop
endfacet
facet normal -1.0 3.0230966042567165e-16 8.322485233805711e-16
  outer loop
    vertex 26.999999999999986 -20.000000000000007 12.2
    vertex 27.000000000000014 -22.000000000000004 0.9999999999999998
    vertex 27.00000000000003 -22.000000000000007 12.2
  endloop
endfacet
facet normal -1.0 3.0230966042567165e-16 8.322485233805711e-16
  outer loop
    vertex 27.000000000000014 -22.000000000000004 0.9999999999999998
    vertex 26.999999999999986 -20.000000000000007 12.2
    vertex 26.999999999999986 -20.000000000000007 1.9999999999999998
  endloop
endfacet
facet normal -1.0 3.0230966042567165e-16 8.322485233805711e-16
  outer loop
    vertex 27.000000000000014 -22.000000000000004 0.9999999999999998
    vertex 26.999999999999986 -20.000000000000007 1.9999999999999998
    vertex 27.000000000000014 0.0 0.9999999999999998
  endloop
endfacet
facet normal -1.0 3.0230966042567165e-16 8.322485233805711e-16
  outer loop
    vertex 26.999999999999986 -20.000000000000007 1.9999999999999998
    vertex 26.999999999999986 -20.000000000000007 12.2
    vertex 26.999999999999986 -20.000000000000007 9.2
  endloop
endfacet
facet normal -1.0 3.0230966042567165e-16 8.322485233805711e-16
  outer loop
    vertex 27.000000000000014 0.0 0.9999999999999998
    vertex 26.999999999999986 -20.000000000000007 1.9999999999999998
    vertex 26.99999999999999 -19.499999999999993 1.9999999999999998
  endloop
endfacet
facet normal -1.0 3.0230966042567165e-16 8.322485233805711e-16
  outer loop
    vertex 27.000000000000014 0.0 0.9999999999999998
    vertex 26.99999999999999 -19.499999999999993 1.9999999999999998
    vertex 26.999999999999996 -16.5 1.9999999999999998
  endloop
endfacet
facet normal -1.0 3.0230966042567165e-16 8.322485233805711e-16
  outer loop
    vertex 26.999999999999996 -16.5 1.9999999999999998
    vertex 26.99999999999999 -19.499999999999993 1.9999999999999998
    vertex 26.999999999999996 -16.5 7.0
  endloop
endfacet
facet normal -1.0 3.0230966042567165e-16 8.322485233805711e-16
  outer loop
    vertex 27.000000000000014 0.0 0.9999999999999998
    vertex 26.999999999999996 -16.5 1.9999999999999998
    vertex 26.999999999999996 0.0 1.9999999999999998
  endloop
endfacet
facet normal 0.0 1.0 0.0
  outer loop
    vertex 26.999999999999996 -16.5 7.0
    vertex 36.99999999999999 -16.5 1.9999999999999998
    vertex 26.999999999999996 -16.5 1.9999999999999998
  endloop
endfacet
facet normal 0.0 1.0 0.0
  outer loop
    vertex 36.99999999999999 -16.5 1.9999999999999998
    vertex 26.999999999999996 -16.5 7.0
    vertex 36.99999999999999 -16.5 3.9999999999999982
  endloop
endfacet
facet normal 0.0 1.0 0.0
  outer loop
    vertex 36.99999999999999 -16.5 3.9999999999999982
    vertex 26.999999999999996 -16.5 7.0
    vertex 36.99999999999999 -16.5 7.0
  endloop
endfacet
facet normal 0.0 0.0 1.0
  outer loop
    vertex 36.99999999999999 -16.5 1.9999999999999998
    vertex 26.999999999999996 0.0 1.9999999999999998
    vertex 26.999999999999996 -16.5 1.9999999999999998
  endloop
endfacet
facet normal 0.0 0.0 1.0
  outer loop
    vertex 26.999999999999996 0.0 1.9999999999999998
    vertex 36.99999999999999 -16.5 1.9999999999999998
    vertex 29.102222521132788 4.223542864692434 1.9999999999999998
  endloop
endfacet
facet normal 0.0 0.0 1.0
  outer loop
    vertex 26.999999999999996 0.0 1.9999999999999998
    vertex 29.102222521132788 4.223542864692434 1.9999999999999998
    vertex 26.999999999999996 10.000000000000002 1.9999999999999998
  endloop
endfacet
facet normal 0.0 0.0 1.0
  outer loop
    vertex 26.999999999999996 10.000000000000002 1.9999999999999998
    vertex 29.102222521132788 4.223542864692434 1.9999999999999998
    vertex 28.999999999999993 4.999999999999999 1.9999999999999998
  endloop
endfacet
facet normal 0.0 0.0 1.0
  outer loop
    vertex 26.999999999999996 10.000000000000002 1.9999999999999998
    vertex 28.999999999999993 4.999999999999999 1.9999999999999998
    vertex 27.00013434784148 26.4999999098217 1.9999999999999998
  endloop
endfacet
facet normal 0.0 0.0 1.0
  outer loop
    vertex 29.102222521132788 4.223542864692434 1.9999999999999998
    vertex 36.99999999999999 -16.5 1.9999999999999998
    vertex 29.401923788646673 3.4999999999999964 1.9999999999999998
  endloop
endfacet
facet normal 0.0 0.0 1.0
  outer loop
    vertex 29.401923788646673 3.4999999999999964 1.9999999999999998
    vertex 36.99999999999999 -16.5 1.9999999999999998
    vertex 29.87867965644035 2.878679656440354 1.9999999999999998
  endloop
endfacet
facet normal 0.0 0.0 1.0
  outer loop
    vertex 29.87867965644035 2.878679656440354 1.9999999999999998
    vertex 36.99999999999999 -16.5 1.9999999999999998
    vertex 30.499999999999996 2.4019237886466818 1.9999999999999998
  endloop
endfacet
facet normal 0.0 0.0 1.0
  outer loop
    vertex 30.499999999999996 2.4019237886466818 1.9999999999999998
    vertex 36.99999999999999 -16.5 1.9999999999999998
    vertex 31.22354286469243 2.1022225211327914 1.9999999999999998
  endloop
endfacet
facet normal 0.0 0.0 1.0
  outer loop
    vertex 31.22354286469243 2.1022225211327914 1.9999999999999998
    vertex 36.99999999999999 -16.5 1.9999999999999998
    vertex 31.999999999999993 1.9999999999999962 1.9999999999999998
  endloop
endfacet
facet normal 0.0 0.0 1.0
  outer loop
    vertex 31.999999999999993 1.9999999999999962 1.9999999999999998
    vertex 36.99999999999999 -16.5 1.9999999999999998
    vertex 32.77645713530755 2.1022225211327914 1.9999999999999998
  endloop
endfacet
facet normal 0.0 0.0 1.0
  outer loop
    vertex 32.77645713530755 2.1022225211327914 1.9999999999999998
    vertex 36.99999999999999 -16.5 1.9999999999999998
    vertex 33.49999999999999 2.4019237886466818 1.9999999999999998
  endloop
endfacet
facet normal 0.0 0.0 1.0
  outer loop
    vertex 33.49999999999999 2.4019237886466818 1.9999999999999998
    vertex 36.99999999999999 -16.5 1.9999999999999998
    vertex 34.12132034355963 2.878679656440354 1.9999999999999998
  endloop
endfacet
facet normal 0.0 0.0 1.0
  outer loop
    vertex 34.12132034355963 2.878679656440354 1.9999999999999998
    vertex 36.99999999999999 -16.5 1.9999999999999998
    vertex 34.59807621135331 3.4999999999999964 1.9999999999999998
  endloop
endfacet
facet normal 0.0 0.0 1.0
  outer loop
    vertex 34.59807621135331 3.4999999999999964 1.9999999999999998
    vertex 36.99999999999999 -16.5 1.9999999999999998
    vertex 34.8977774788672 4.223542864692437 1.9999999999999998
  endloop
endfacet
facet normal 0.0 0.0 1.0
  outer loop
    vertex 34.8977774788672 4.223542864692437 1.9999999999999998
    vertex 36.99999999999999 -16.5 1.9999999999999998
    vertex 34.99999999999999 4.9999999999999964 1.9999999999999998
  endloop
endfacet
facet normal 0.0 0.0 1.0
  outer loop
    vertex 34.99999999999999 4.9999999999999964 1.9999999999999998
    vertex 36.99999999999999 -16.5 1.9999999999999998
    vertex 36.999999999999986 0.0 1.9999999999999998
  endloop
endfacet
facet normal 0.0 0.0 1.0
  outer loop
    vertex 36.999999999999986 0.0 1.9999999999999998
    vertex 36.99999999999999 -16.5 1.9999999999999998
    vertex 36.99999999999999 -14.500000000000002 1.9999999999999998
  endloop
endfacet
facet normal 0.0 0.0 1.0
  outer loop
    vertex 60.99999999999999 0.0 1.9999999999999998
    vertex 37.0 10.000000000000002 1.9999999999999998
    vertex 36.999999999999986 0.0 1.9999999999999998
  endloop
endfacet
facet normal 0.0 0.0 1.0
  outer loop
    vertex 37.0 10.000000000000002 1.9999999999999998
    vertex 60.99999999999999 0.0 1.9999999999999998
    vertex 60.99999999999999 10.000000000000002 1.9999999999999998
  endloop
endfacet
facet normal 0.0 0.0 1.0
  outer loop
    vertex 27.00013434784148 26.4999999098217 1.9999999999999998
    vertex 29.102222521132788 5.7764571353075596 1.9999999999999998
    vertex 37.00013434784148 26.49999990982171 1.9999999999999998
  endloop
endfacet
facet normal 0.0 0.0 1.0
  outer loop
    vertex 29.102222521132788 5.7764571353075596 1.9999999999999998
    vertex 27.00013434784148 26.4999999098217 1.9999999999999998
    vertex 28.999999999999993 4.999999999999999 1.9999999999999998
  endloop
endfacet
facet normal 0.0 0.0 1.0
  outer loop
    vertex 37.00013434784148 26.49999990982171 1.9999999999999998
    vertex 29.102222521132788 5.7764571353075596 1.9999999999999998
    vertex 29.401923788646673 6.4999999999999964 1.9999999999999998
  endloop
endfacet
facet normal 0.0 0.0 1.0
  outer loop
    vertex 37.00013434784148 26.49999990982171 1.9999999999999998
    vertex 29.401923788646673 6.4999999999999964 1.9999999999999998
    vertex 29.87867965644035 7.121320343559642 1.9999999999999998
  endloop
endfacet
facet normal 0.0 0.0 1.0
  outer loop
    vertex 37.00013434784148 26.49999990982171 1.9999999999999998
    vertex 29.87867965644035 7.121320343559642 1.9999999999999998
    vertex 30.499999999999996 7.598076211353312 1.9999999999999998
  endloop
endfacet
facet normal 0.0 0.0 1.0
  outer loop
    vertex 37.00013434784148 26.49999990982171 1.9999999999999998
    vertex 30.499999999999996 7.598076211353312 1.9999999999999998
    vertex 31.22354286469243 7.897777478867204 1.9999999999999998
  endloop
endfacet
facet normal 0.0 0.0 1.0
  outer loop
    vertex 37.00013434784148 26.49999990982171 1.9999999999999998
    vertex 31.22354286469243 7.897777478867204 1.9999999999999998
    vertex 31.999999999999993 7.999999999999999 1.9999999999999998
  endloop
endfacet
facet normal 0.0 0.0 1.0
  outer loop
    vertex 37.00013434784148 26.49999990982171 1.9999999999999998
    vertex 31.999999999999993 7.999999999999999 1.9999999999999998
    vertex 32.77645713530755 7.897777478867204 1.9999999999999998
  endloop
endfacet
facet normal 0.0 0.0 1.0
  outer loop
    vertex 37.00013434784148 26.49999990982171 1.9999999999999998
    vertex 32.77645713530755 7.897777478867204 1.9999999999999998
    vertex 33.49999999999999 7.598076211353312 1.9999999999999998
  endloop
endfacet
facet normal 0.0 0.0 1.0
  outer loop
    vertex 37.00013434784148 26.49999990982171 1.9999999999999998
    vertex 33.49999999999999 7.598076211353312 1.9999999999999998
    vertex 34.12132034355963 7.121320343559642 1.9999999999999998
  endloop
endfacet
facet normal 0.0 0.0 1.0
  outer loop
    vertex 37.00013434784148 26.49999990982171 1.9999999999999998
    vertex 34.12132034355963 7.121320343559642 1.9999999999999998
    vertex 34.59807621135331 6.4999999999999964 1.9999999999999998
  endloop
endfacet
facet normal 0.0 0.0 1.0
  outer loop
    vertex 37.00013434784148 26.49999990982171 1.9999999999999998
    vertex 34.59807621135331 6.4999999999999964 1.9999999999999998
    vertex 34.8977774788672 5.7764571353075596 1.9999999999999998
  endloop
endfacet
facet normal 0.0 0.0 1.0
  outer loop
    vertex 37.00013434784148 26.49999990982171 1.9999999999999998
    vertex 34.8977774788672 5.7764571353075596 1.9999999999999998
    vertex 34.99999999999999 4.9999999999999964 1.9999999999999998
  endloop
endfacet
facet normal 0.0 0.0 1.0
  outer loop
    vertex 37.00013434784148 26.49999990982171 1.9999999999999998
    vertex 34.99999999999999 4.9999999999999964 1.9999999999999998
    vertex 37.0 10.000000000000002 1.9999999999999998
  endloop
endfacet
facet normal 0.0 0.0 1.0
  outer loop
    vertex 37.0 10.000000000000002 1.9999999999999998
    vertex 34.99999999999999 4.9999999999999964 1.9999999999999998
    vertex 36.999999999999986 0.0 1.9999999999999998
  endloop
endfacet
facet normal 0.0 0.0 1.0
  outer loop
    vertex 26.999999999999996 0.0 1.9999999999999998
    vertex 3.0 10.000000000000002 1.9999999999999998
    vertex 3.0 0.0 1.9999999999999998
  endloop
endfacet
facet normal 0.0 0.0 1.0
  outer loop
    vertex 3.0 10.000000000000002 1.9999999999999998
    vertex 26.999999999999996 0.0 1.9999999999999998
    vertex 26.999999999999996 10.000000000000002 1.9999999999999998
  endloop
endfacet
facet normal 0.0 0.0 1.0
  outer loop
    vertex 29.102222521132788 4.223542864692434 7.000000000000004
    vertex 29.102222521132788 5.7764571353075596 7.000000000000004
    vertex 28.999999999999993 4.999999999999999 7.000000000000004
  endloop
endfacet
facet normal 0.0 0.0 1.0
  outer loop
    vertex 29.102222521132788 5.7764571353075596 7.000000000000004
    vertex 29.102222521132788 4.223542864692434 7.000000000000004
    vertex 29.401923788646673 3.4999999999999964 7.000000000000004
  endloop
endfacet
facet normal 0.0 0.0 1.0
  outer loop
    vertex 29.102222521132788 5.7764571353075596 7.000000000000004
    vertex 29.401923788646673 3.4999999999999964 7.000000000000004
    vertex 29.401923788646673 6.4999999999999964 7.000000000000004
  endloop
endfacet
facet normal 0.0 0.0 1.0
  outer loop
    vertex 29.401923788646673 6.4999999999999964 7.000000000000004
    vertex 29.401923788646673 3.4999999999999964 7.000000000000004
    vertex 29.87867965644035 2.878679656440354 7.000000000000004
  endloop
endfacet
facet normal 0.0 0.0 1.0
  outer loop
    vertex 29.401923788646673 6.4999999999999964 7.000000000000004
    vertex 29.87867965644035 2.878679656440354 7.000000000000004
    vertex 29.87867965644035 7.121320343559642 7.000000000000004
  endloop
endfacet
facet normal 0.0 0.0 1.0
  outer loop
    vertex 29.87867965644035 7.121320343559642 7.000000000000004
    vertex 29.87867965644035 2.878679656440354 7.000000000000004
    vertex 30.499999999999996 2.4019237886466818 7.000000000000004
  endloop
endfacet
facet normal 0.0 0.0 1.0
  outer loop
    vertex 29.87867965644035 7.121320343559642 7.000000000000004
    vertex 30.499999999999996 2.4019237886466818 7.000000000000004
    vertex 30.499999999999996 7.598076211353312 7.000000000000004
  endloop
endfacet
facet normal 0.0 0.0 1.0
  outer loop
    vertex 30.499999999999996 7.598076211353312 7.000000000000004
    vertex 30.499999999999996 2.4019237886466818 7.000000000000004
    vertex 31.22354286469243 2.1022225211327914 7.000000000000004
  endloop
endfacet
facet normal 0.0 0.0 1.0
  outer loop
    vertex 30.499999999999996 7.598076211353312 7.000000000000004
    vertex 31.22354286469243 2.1022225211327914 7.000000000000004
    vertex 31.22354286469243 7.897777478867204 7.000000000000004
  endloop
endfacet
facet normal 0.0 0.0 1.0
  outer loop
    vertex 31.22354286469243 7.897777478867204 7.000000000000004
    vertex 31.22354286469243 2.1022225211327914 7.000000000000004
    vertex 31.999999999999993 1.9999999999999962 7.000000000000004
  endloop
endfacet
facet normal 0.0 0.0 1.0
  outer loop
    vertex 31.22354286469243 7.897777478867204 7.000000000000004
    vertex 31.999999999999993 1.9999999999999962 7.000000000000004
    vertex 31.999999999999993 7.999999999999999 7.000000000000004
  endloop
endfacet
facet normal 0.0 0.0 1.0
  outer loop
    vertex 31.999999999999993 7.999999999999999 7.000000000000004
    vertex 31.999999999999993 1.9999999999999962 7.000000000000004
    vertex 32.77645713530755 2.1022225211327914 7.000000000000004
  endloop
endfacet
facet normal 0.0 0.0 1.0
  outer loop
    vertex 31.999999999999993 7.999999999999999 7.000000000000004
    vertex 32.77645713530755 2.1022225211327914 7.000000000000004
    vertex 32.77645713530755 7.897777478867204 7.000000000000004
  endloop
endfacet
facet normal 0.0 0.0 1.0
  outer loop
    vertex 32.77645713530755 7.897777478867204 7.000000000000004
    vertex 32.77645713530755 2.1022225211327914 7.000000000000004
    vertex 33.49999999999999 2.4019237886466818 7.000000000000004
  endloop
endfacet
facet normal 0.0 0.0 1.0
  outer loop
    vertex 32.77645713530755 7.897777478867204 7.000000000000004
    vertex 33.49999999999999 2.4019237886466818 7.000000000000004
    vertex 33.49999999999999 7.598076211353312 7.000000000000004
  endloop
endfacet
facet normal 0.0 0.0 1.0
  outer loop
    vertex 33.49999999999999 7.598076211353312 7.000000000000004
    vertex 33.49999999999999 2.4019237886466818 7.000000000000004
    vertex 34.12132034355963 2.878679656440354 7.000000000000004
  endloop
endfacet
facet normal 0.0 0.0 1.0
  outer loop
    vertex 33.49999999999999 7.598076211353312 7.000000000000004
    vertex 34.12132034355963 2.878679656440354 7.000000000000004
    vertex 34.12132034355963 7.121320343559642 7.000000000000004
  endloop
endfacet
facet normal 0.0 0.0 1.0
  outer loop
    vertex 34.12132034355963 7.121320343559642 7.000000000000004
    vertex 34.12132034355963 2.878679656440354 7.000000000000004
    vertex 34.59807621135331 3.4999999999999964 7.000000000000004
  endloop
endfacet
facet normal 0.0 0.0 1.0
  outer loop
    vertex 34.12132034355963 7.121320343559642 7.000000000000004
    vertex 34.59807621135331 3.4999999999999964 7.000000000000004
    vertex 34.59807621135331 6.4999999999999964 7.000000000000004
  endloop
endfacet
facet normal 0.0 0.0 1.0
  outer loop
    vertex 34.59807621135331 6.4999999999999964 7.000000000000004
    vertex 34.59807621135331 3.4999999999999964 7.000000000000004
    vertex 34.8977774788672 4.223542864692437 7.000000000000004
  endloop
endfacet
facet normal 0.0 0.0 1.0
  outer loop
    vertex 34.59807621135331 6.4999999999999964 7.000000000000004
    vertex 34.8977774788672 4.223542864692437 7.000000000000004
    vertex 34.8977774788672 5.7764571353075596 7.000000000000004
  endloop
endfacet
facet normal 0.0 0.0 1.0
  outer loop
    vertex 34.8977774788672 5.7764571353075596 7.000000000000004
    vertex 34.8977774788672 4.223542864692437 7.000000000000004
    vertex 34.99999999999999 4.9999999999999964 7.000000000000004
  endloop
endfacet
facet normal 0.7933533402912337 0.6087614290087224 0.0
  outer loop
    vertex 34.12132034355963 7.121320343559642 1.9999999999999998
    vertex 34.59807621135331 6.4999999999999964 7.000000000000004
    vertex 34.59807621135331 6.4999999999999964 1.9999999999999998
  endloop
endfacet
facet normal 0.7933533402912337 0.6087614290087224 0.0
  outer loop
    vertex 34.59807621135331 6.4999999999999964 7.000000000000004
    vertex 34.12132034355963 7.121320343559642 1.9999999999999998
    vertex 34.12132034355963 7.121320343559642 7.000000000000004
  endloop
endfacet
facet normal 0.608761429008723 0.7933533402912333 0.0
  outer loop
    vertex 33.49999999999999 7.598076211353312 7.000000000000004
    vertex 34.12132034355963 7.121320343559642 1.9999999999999998
    vertex 33.49999999999999 7.598076211353312 1.9999999999999998
  endloop
endfacet
facet normal 0.608761429008723 0.7933533402912333 0.0
  outer loop
    vertex 34.12132034355963 7.121320343559642 1.9999999999999998
    vertex 33.49999999999999 7.598076211353312 7.000000000000004
    vertex 34.12132034355963 7.121320343559642 7.000000000000004
  endloop
endfacet
facet normal 0.3826834323650885 0.9238795325112873 0.0
  outer loop
    vertex 32.77645713530755 7.897777478867204 7.000000000000004
    vertex 33.49999999999999 7.598076211353312 1.9999999999999998
    vertex 32.77645713530755 7.897777478867204 1.9999999999999998
  endloop
endfacet
facet normal 0.3826834323650885 0.9238795325112873 0.0
  outer loop
    vertex 33.49999999999999 7.598076211353312 1.9999999999999998
    vertex 32.77645713530755 7.897777478867204 7.000000000000004
    vertex 33.49999999999999 7.598076211353312 7.000000000000004
  endloop
endfacet
facet normal 0.13052619222005346 0.9914448613738103 0.0
  outer loop
    vertex 31.999999999999993 7.999999999999999 7.000000000000004
    vertex 32.77645713530755 7.897777478867204 1.9999999999999998
    vertex 31.999999999999993 7.999999999999999 1.9999999999999998
  endloop
endfacet
facet normal 0.13052619222005346 0.9914448613738103 0.0
  outer loop
    vertex 32.77645713530755 7.897777478867204 1.9999999999999998
    vertex 31.999999999999993 7.999999999999999 7.000000000000004
    vertex 32.77645713530755 7.897777478867204 7.000000000000004
  endloop
endfacet
facet normal -0.13052619222005168 0.9914448613738105 0.0
  outer loop
    vertex 31.22354286469243 7.897777478867204 7.000000000000004
    vertex 31.999999999999993 7.999999999999999 1.9999999999999998
    vertex 31.22354286469243 7.897777478867204 1.9999999999999998
  endloop
endfacet
facet normal -0.13052619222005168 0.9914448613738105 0.0
  outer loop
    vertex 31.999999999999993 7.999999999999999 1.9999999999999998
    vertex 31.22354286469243 7.897777478867204 7.000000000000004
    vertex 31.999999999999993 7.999999999999999 7.000000000000004
  endloop
endfacet
facet normal -0.38268343236509256 0.9238795325112856 0.0
  outer loop
    vertex 30.499999999999996 7.598076211353312 7.000000000000004
    vertex 31.22354286469243 7.897777478867204 1.9999999999999998
    vertex 30.499999999999996 7.598076211353312 1.9999999999999998
  endloop
endfacet
facet normal -0.38268343236509256 0.9238795325112856 0.0
  outer loop
    vertex 31.22354286469243 7.897777478867204 1.9999999999999998
    vertex 30.499999999999996 7.598076211353312 7.000000000000004
    vertex 31.22354286469243 7.897777478867204 7.000000000000004
  endloop
endfacet
facet normal -0.6087614290087184 0.7933533402912368 0.0
  outer loop
    vertex 29.87867965644035 7.121320343559642 7.000000000000004
    vertex 30.499999999999996 7.598076211353312 1.9999999999999998
    vertex 29.87867965644035 7.121320343559642 1.9999999999999998
  endloop
endfacet
facet normal -0.6087614290087184 0.7933533402912368 0.0
  outer loop
    vertex 30.499999999999996 7.598076211353312 1.9999999999999998
    vertex 29.87867965644035 7.121320343559642 7.000000000000004
    vertex 30.499999999999996 7.598076211353312 7.000000000000004
  endloop
endfacet
facet normal -0.793353340291235 0.6087614290087207 0.0
  outer loop
    vertex 29.87867965644035 7.121320343559642 7.000000000000004
    vertex 29.401923788646673 6.4999999999999964 1.9999999999999998
    vertex 29.401923788646673 6.4999999999999964 7.000000000000004
  endloop
endfacet
facet normal -0.793353340291235 0.6087614290087207 0.0
  outer loop
    vertex 29.401923788646673 6.4999999999999964 1.9999999999999998
    vertex 29.87867965644035 7.121320343559642 7.000000000000004
    vertex 29.87867965644035 7.121320343559642 1.9999999999999998
  endloop
endfacet
facet normal -0.9238795325112874 0.3826834323650882 0.0
  outer loop
    vertex 29.401923788646673 6.4999999999999964 7.000000000000004
    vertex 29.102222521132788 5.7764571353075596 1.9999999999999998
    vertex 29.102222521132788 5.7764571353075596 7.000000000000004
  endloop
endfacet
facet normal -0.9238795325112874 0.3826834323650882 0.0
  outer loop
    vertex 29.102222521132788 5.7764571353075596 1.9999999999999998
    vertex 29.401923788646673 6.4999999999999964 7.000000000000004
    vertex 29.401923788646673 6.4999999999999964 1.9999999999999998
  endloop
endfacet
facet normal -0.9914448613738104 0.13052619222005202 0.0
  outer loop
    vertex 29.102222521132788 5.7764571353075596 7.000000000000004
    vertex 28.999999999999993 4.999999999999999 1.9999999999999998
    vertex 28.999999999999993 4.999999999999999 7.000000000000004
  endloop
endfacet
facet normal -0.9914448613738104 0.13052619222005202 0.0
  outer loop
    vertex 28.999999999999993 4.999999999999999 1.9999999999999998
    vertex 29.102222521132788 5.7764571353075596 7.000000000000004
    vertex 29.102222521132788 5.7764571353075596 1.9999999999999998
  endloop
endfacet
facet normal -0.9914448613738106 -0.13052619222005135 -0.0
  outer loop
    vertex 28.999999999999993 4.999999999999999 7.000000000000004
    vertex 29.102222521132788 4.223542864692434 1.9999999999999998
    vertex 29.102222521132788 4.223542864692434 7.000000000000004
  endloop
endfacet
facet normal -0.9914448613738106 -0.13052619222005135 -0.0
  outer loop
    vertex 29.102222521132788 4.223542864692434 1.9999999999999998
    vertex 28.999999999999993 4.999999999999999 7.000000000000004
    vertex 28.999999999999993 4.999999999999999 1.9999999999999998
  endloop
endfacet
facet normal -0.9238795325112873 -0.38268343236508856 -0.0
  outer loop
    vertex 29.102222521132788 4.223542864692434 7.000000000000004
    vertex 29.401923788646673 3.4999999999999964 1.9999999999999998
    vertex 29.401923788646673 3.4999999999999964 7.000000000000004
  endloop
endfacet
facet normal -0.9238795325112873 -0.38268343236508856 -0.0
  outer loop
    vertex 29.401923788646673 3.4999999999999964 1.9999999999999998
    vertex 29.102222521132788 4.223542864692434 7.000000000000004
    vertex 29.102222521132788 4.223542864692434 1.9999999999999998
  endloop
endfacet
facet normal -0.7933533402912337 -0.6087614290087224 -0.0
  outer loop
    vertex 29.401923788646673 3.4999999999999964 7.000000000000004
    vertex 29.87867965644035 2.878679656440354 1.9999999999999998
    vertex 29.87867965644035 2.878679656440354 7.000000000000004
  endloop
endfacet
facet normal -0.7933533402912337 -0.6087614290087224 -0.0
  outer loop
    vertex 29.87867965644035 2.878679656440354 1.9999999999999998
    vertex 29.401923788646673 3.4999999999999964 7.000000000000004
    vertex 29.401923788646673 3.4999999999999964 1.9999999999999998
  endloop
endfacet
facet normal -0.6087614290087199 -0.7933533402912358 -0.0
  outer loop
    vertex 30.499999999999996 2.4019237886466818 7.000000000000004
    vertex 29.87867965644035 2.878679656440354 1.9999999999999998
    vertex 30.499999999999996 2.4019237886466818 1.9999999999999998
  endloop
endfacet
facet normal -0.6087614290087199 -0.7933533402912358 -0.0
  outer loop
    vertex 29.87867965644035 2.878679656440354 1.9999999999999998
    vertex 30.499999999999996 2.4019237886466818 7.000000000000004
    vertex 29.87867965644035 2.878679656440354 7.000000000000004
  endloop
endfacet
facet normal -0.38268343236509067 -0.9238795325112864 -0.0
  outer loop
    vertex 31.22354286469243 2.1022225211327914 7.000000000000004
    vertex 30.499999999999996 2.4019237886466818 1.9999999999999998
    vertex 31.22354286469243 2.1022225211327914 1.9999999999999998
  endloop
endfacet
facet normal -0.38268343236509067 -0.9238795325112864 -0.0
  outer loop
    vertex 30.499999999999996 2.4019237886466818 1.9999999999999998
    vertex 31.22354286469243 2.1022225211327914 7.000000000000004
    vertex 30.499999999999996 2.4019237886466818 7.000000000000004
  endloop
endfacet
facet normal -0.13052619222005168 -0.9914448613738105 -0.0
  outer loop
    vertex 31.999999999999993 1.9999999999999962 7.000000000000004
    vertex 31.22354286469243 2.1022225211327914 1.9999999999999998
    vertex 31.999999999999993 1.9999999999999962 1.9999999999999998
  endloop
endfacet
facet normal -0.13052619222005168 -0.9914448613738105 -0.0
  outer loop
    vertex 31.22354286469243 2.1022225211327914 1.9999999999999998
    vertex 31.999999999999993 1.9999999999999962 7.000000000000004
    vertex 31.22354286469243 2.1022225211327914 7.000000000000004
  endloop
endfacet
facet normal 0.13052619222005168 -0.9914448613738105 0.0
  outer loop
    vertex 32.77645713530755 2.1022225211327914 7.000000000000004
    vertex 31.999999999999993 1.9999999999999962 1.9999999999999998
    vertex 32.77645713530755 2.1022225211327914 1.9999999999999998
  endloop
endfacet
facet normal 0.13052619222005168 -0.9914448613738105 0.0
  outer loop
    vertex 31.999999999999993 1.9999999999999962 1.9999999999999998
    vertex 32.77645713530755 2.1022225211327914 7.000000000000004
    vertex 31.999999999999993 1.9999999999999962 7.000000000000004
  endloop
endfacet
facet normal 0.3826834323650892 -0.923879532511287 0.0
  outer loop
    vertex 33.49999999999999 2.4019237886466818 7.000000000000004
    vertex 32.77645713530755 2.1022225211327914 1.9999999999999998
    vertex 33.49999999999999 2.4019237886466818 1.9999999999999998
  endloop
endfacet
facet normal 0.3826834323650892 -0.923879532511287 0.0
  outer loop
    vertex 32.77645713530755 2.1022225211327914 1.9999999999999998
    vertex 33.49999999999999 2.4019237886466818 7.000000000000004
    vertex 32.77645713530755 2.1022225211327914 7.000000000000004
  endloop
endfacet
facet normal 0.6087614290087222 -0.7933533402912339 0.0
  outer loop
    vertex 34.12132034355963 2.878679656440354 7.000000000000004
    vertex 33.49999999999999 2.4019237886466818 1.9999999999999998
    vertex 34.12132034355963 2.878679656440354 1.9999999999999998
  endloop
endfacet
facet normal 0.6087614290087222 -0.7933533402912339 0.0
  outer loop
    vertex 33.49999999999999 2.4019237886466818 1.9999999999999998
    vertex 34.12132034355963 2.878679656440354 7.000000000000004
    vertex 33.49999999999999 2.4019237886466818 7.000000000000004
  endloop
endfacet
facet normal 0.793353340291234 -0.6087614290087223 0.0
  outer loop
    vertex 34.59807621135331 3.4999999999999964 1.9999999999999998
    vertex 34.12132034355963 2.878679656440354 7.000000000000004
    vertex 34.12132034355963 2.878679656440354 1.9999999999999998
  endloop
endfacet
facet normal 0.793353340291234 -0.6087614290087223 0.0
  outer loop
    vertex 34.12132034355963 2.878679656440354 7.000000000000004
    vertex 34.59807621135331 3.4999999999999964 1.9999999999999998
    vertex 34.59807621135331 3.4999999999999964 7.000000000000004
  endloop
endfacet
facet normal 0.9238795325112877 -0.3826834323650876 0.0
  outer loop
    vertex 34.8977774788672 4.223542864692437 1.9999999999999998
    vertex 34.59807621135331 3.4999999999999964 7.000000000000004
    vertex 34.59807621135331 3.4999999999999964 1.9999999999999998
  endloop
endfacet
facet normal 0.9238795325112877 -0.3826834323650876 0.0
  outer loop
    vertex 34.59807621135331 3.4999999999999964 7.000000000000004
    vertex 34.8977774788672 4.223542864692437 1.9999999999999998
    vertex 34.8977774788672 4.223542864692437 7.000000000000004
  endloop
endfacet
facet normal 0.9914448613738104 -0.1305261922200519 0.0
  outer loop
    vertex 34.99999999999999 4.9999999999999964 1.9999999999999998
    vertex 34.8977774788672 4.223542864692437 7.000000000000004
    vertex 34.8977774788672 4.223542864692437 1.9999999999999998
  endloop
endfacet
facet normal 0.9914448613738104 -0.1305261922200519 0.0
  outer loop
    vertex 34.8977774788672 4.223542864692437 7.000000000000004
    vertex 34.99999999999999 4.9999999999999964 1.9999999999999998
    vertex 34.99999999999999 4.9999999999999964 7.000000000000004
  endloop
endfacet
facet normal 0.9914448613738105 0.13052619222005168 0.0
  outer loop
    vertex 34.8977774788672 5.7764571353075596 1.9999999999999998
    vertex 34.99999999999999 4.9999999999999964 7.000000000000004
    vertex 34.99999999999999 4.9999999999999964 1.9999999999999998
  endloop
endfacet
facet normal 0.9914448613738105 0.13052619222005168 0.0
  outer loop
    vertex 34.99999999999999 4.9999999999999964 7.000000000000004
    vertex 34.8977774788672 5.7764571353075596 1.9999999999999998
    vertex 34.8977774788672 5.7764571353075596 7.000000000000004
  endloop
endfacet
facet normal 0.9238795325112875 0.3826834323650879 0.0
  outer loop
    vertex 34.59807621135331 6.4999999999999964 1.9999999999999998
    vertex 34.8977774788672 5.7764571353075596 7.000000000000004
    vertex 34.8977774788672 5.7764571353075596 1.9999999999999998
  endloop
endfacet
facet normal 0.9238795325112875 0.3826834323650879 0.0
  outer loop
    vertex 34.8977774788672 5.7764571353075596 7.000000000000004
    vertex 34.59807621135331 6.4999999999999964 1.9999999999999998
    vertex 34.59807621135331 6.4999999999999964 7.000000000000004
  endloop
endfacet
endsolid podlozka PCB 2
